<svg width="87" height="32" viewBox="0 0 87 32" fill="none" xmlns="http://www.w3.org/2000/svg">
<g clip-path="url(#clip0_3_2066)">
<path d="M20.4294 2.51197C19.2143 1.99632 17.8762 1.84018 16.5746 2.06218C15.2731 2.28418 14.063 2.87495 13.0886 3.76406C12.7589 3.47111 12.4034 3.20838 12.0264 2.97905C13.0022 2.09649 14.21 1.5099 15.5081 1.28812C16.8063 1.06634 18.1409 1.21858 19.3554 1.72697C20.0643 2.02722 20.7194 2.44086 21.2949 2.95158C21.0158 2.78716 20.7268 2.64034 20.4294 2.51197ZM20.0635 24.6728H18.9738V8.13264C18.9753 7.82095 18.9123 7.5123 18.7889 7.22595C18.7074 7.05327 18.6072 6.89005 18.4899 6.73925C18.5293 6.73925 18.5725 6.76672 18.6119 6.78635C18.8866 6.90078 19.1365 7.06742 19.3475 7.27698C19.559 7.48881 19.7297 7.7376 19.8511 8.01096C19.984 8.29528 20.0563 8.60401 20.0635 8.91765V24.6728ZM10.9327 2.43347C9.24647 1.78398 7.37293 1.81539 5.70947 2.52103C4.046 3.22667 2.72345 4.55104 2.02228 6.21329C1.65822 7.06833 1.47347 7.98868 1.47939 8.91765V24.6728H0.393609V8.13264C0.38769 7.20367 0.572446 6.28332 0.936499 5.42828C1.64035 3.75794 2.9721 2.42922 4.64624 1.72697C6.30483 1.03275 8.16809 1.00462 9.84697 1.64846C10.6174 1.94133 11.327 2.37381 11.9398 2.9241C11.6141 2.73323 11.2734 2.56914 10.9209 2.43347M10.7439 24.6728H9.68174V8.13264C9.6833 7.82171 9.62313 7.51356 9.50471 7.22595C9.42983 7.05316 9.33476 6.88979 9.22146 6.73925C9.26429 6.75255 9.30632 6.76827 9.34735 6.78635C9.62212 6.90078 9.87197 7.06742 10.083 7.27698C10.2996 7.49153 10.4707 7.74733 10.5863 8.02917C10.7019 8.31102 10.7595 8.61316 10.7557 8.91765L10.7439 24.6728ZM21.8613 2.92803C21.1822 2.25915 20.381 1.72622 19.501 1.35801C17.7445 0.623973 15.7721 0.593049 13.9934 1.27166C13.2678 1.55387 12.5929 1.95153 11.9949 2.44917C10.9615 1.60658 9.71819 1.05968 8.39766 0.866817C7.07712 0.673956 5.72888 0.842368 4.49675 1.35409C2.72125 2.09854 1.30892 3.50766 0.56277 5.27913C0.1841 6.18266 -0.00726515 7.15333 0.00021089 8.13264V25.0771H5.46058V8.13264C5.4575 7.87674 5.50704 7.62293 5.60613 7.38688C5.69931 7.15922 5.83706 6.95239 6.01134 6.77851C6.18562 6.60462 6.39292 6.46718 6.6211 6.37422C7.10048 6.18044 7.63663 6.18044 8.11601 6.37422C8.34266 6.46475 8.54969 6.59802 8.72578 6.76672C8.90246 6.94511 9.04207 7.15658 9.13659 7.38896C9.2311 7.62135 9.27867 7.87008 9.27654 8.12086V25.0771H14.7369V8.13264C14.7338 7.87674 14.7834 7.62293 14.8825 7.38688C14.9732 7.16075 15.1068 6.95419 15.2759 6.7785C15.454 6.60133 15.6658 6.46146 15.8989 6.3671C16.132 6.27274 16.3816 6.22578 16.6331 6.22899C16.8896 6.22592 17.144 6.27535 17.3805 6.37422C17.6065 6.46386 17.8124 6.59726 17.9864 6.76672C18.1631 6.94258 18.3046 7.15038 18.4034 7.37903C18.5084 7.61209 18.5608 7.86535 18.5568 8.12086V25.0771H23.9975V8.13264C24.0037 6.18411 23.2356 4.31256 21.8613 2.92803Z" fill="white"/>
<path d="M64.1243 12.1085C63.2673 11.7453 62.3449 11.5609 61.4138 11.5668H56.7638C56.4539 11.5651 56.1475 11.501 55.863 11.3784C55.5875 11.2635 55.3375 11.0955 55.1273 10.8839C55.0492 10.808 54.9781 10.7252 54.9149 10.6366C55.1674 10.7262 55.4336 10.7714 55.7017 10.7701H60.3477C61.2801 10.7642 62.2038 10.9485 63.0622 11.3117C63.7688 11.618 64.4201 12.0384 64.9898 12.5559C64.7105 12.3897 64.4215 12.2403 64.1243 12.1085ZM63.55 19.4169C63.4366 19.6918 63.2695 19.9413 63.0582 20.1509C62.8473 20.3616 62.5975 20.5296 62.3226 20.6455C62.0343 20.7636 61.7255 20.8236 61.4138 20.8221H51.0989V24.6726H50.0249V20.0371H60.3359C60.6481 20.0402 60.9575 19.9787 61.2447 19.8565C61.5194 19.7421 61.7693 19.5755 61.9803 19.3659C62.1969 19.1513 62.368 18.8955 62.4836 18.6137C62.5992 18.3319 62.6568 18.0297 62.653 17.7252C62.6555 17.4155 62.5953 17.1084 62.476 16.8225C62.3996 16.6504 62.3046 16.4872 62.1927 16.3358L62.3186 16.3789C62.5944 16.4934 62.8445 16.6615 63.0543 16.8735C63.2664 17.0823 63.4338 17.332 63.546 17.6075C63.6656 17.8942 63.7272 18.2017 63.7272 18.5122C63.7272 18.8227 63.6656 19.1302 63.546 19.4169M50.3554 11.9476C50.7086 12.7721 51.216 13.5221 51.8503 14.1574C51.9487 14.2555 52.047 14.3458 52.1493 14.436C51.6494 14.1412 51.1893 13.7837 50.7803 13.3724C50.1424 12.7377 49.6334 11.986 49.2814 11.1586C48.9129 10.3047 48.7254 9.38397 48.7307 8.45427C48.725 7.52708 48.9126 6.60883 49.2814 5.75777C49.9973 4.0978 51.3235 2.77463 52.9872 2.06038C53.8397 1.69061 54.7604 1.50341 55.6899 1.51087H66.3431V2.29588H56.7638C55.8345 2.29027 54.9142 2.47739 54.0612 2.84539C52.3947 3.55556 51.0672 4.88005 50.3554 6.54278C49.9848 7.39328 49.7972 8.31191 49.8046 9.23928C49.798 10.1704 49.9855 11.0927 50.3554 11.9476ZM65.5524 12.5206C64.8742 11.8505 64.0728 11.3174 63.192 10.9506C62.283 10.5691 61.3063 10.3742 60.3202 10.3775H55.6899C55.439 10.3802 55.1902 10.333 54.9578 10.2387C54.7255 10.1443 54.5143 10.0047 54.3366 9.82804C54.1653 9.65261 54.0314 9.4443 53.9432 9.21573C53.8436 8.97559 53.7928 8.7181 53.7937 8.4582C53.7906 8.2023 53.8402 7.94849 53.9393 7.71244C54.0303 7.48645 54.1638 7.27994 54.3327 7.10406C54.5103 6.92737 54.7215 6.78777 54.9539 6.69343C55.1862 6.59908 55.4351 6.55187 55.6859 6.55455H66.7444V1.10267H55.6899C54.7048 1.09674 53.7294 1.29593 52.8259 1.6875C51.0561 2.44034 49.6465 3.84672 48.892 5.61254C48.5025 6.51478 48.3043 7.48763 48.3097 8.46998C48.3032 9.45496 48.5014 10.4306 48.892 11.3353C49.6444 13.1025 51.0547 14.5095 52.8259 15.2603C53.7294 15.6519 54.7048 15.8511 55.6899 15.8451H60.3359C60.5874 15.8419 60.837 15.8889 61.0701 15.9832C61.3032 16.0776 61.515 16.2175 61.6931 16.3946C61.8622 16.5703 61.9958 16.7769 62.0865 17.003C62.187 17.2388 62.2379 17.4926 62.236 17.7488C62.2387 18 62.191 18.2492 62.0958 18.4818C62.0005 18.7143 61.8596 18.9255 61.6813 19.1029C61.507 19.272 61.3012 19.4053 61.0755 19.4954C60.8374 19.594 60.5818 19.6434 60.3241 19.6407H49.6197V25.0768H60.3359C61.3247 25.0821 62.3038 24.883 63.2116 24.492C64.9838 23.7426 66.3945 22.3351 67.1456 20.567C67.5248 19.6604 67.72 18.6879 67.72 17.7056C67.72 16.7233 67.5248 15.7508 67.1456 14.8442C66.7766 13.9662 66.2424 13.1668 65.572 12.4892" fill="white"/>
<path d="M41.4565 3.02187C40.3116 2.54321 39.0826 2.2967 37.8412 2.2967C36.5998 2.2967 35.3708 2.54321 34.2259 3.02187C33.1238 3.48671 32.1229 4.1613 31.2793 5.00794C30.4416 5.85664 29.774 6.85713 29.3123 7.95565C28.8227 9.09637 28.5749 10.3258 28.5846 11.5667V24.6724H27.4909V10.7817C27.4832 9.54099 27.7309 8.31193 28.2187 7.17064C28.6803 6.07212 29.348 5.07163 30.1857 4.22293C31.03 3.37714 32.0306 2.70267 33.1322 2.23686C34.2784 1.75756 35.5087 1.51071 36.7515 1.51071C37.9943 1.51071 39.2246 1.75756 40.3708 2.23686C41.2421 2.60828 42.0524 3.10844 42.7744 3.72053C42.3491 3.45289 41.9031 3.21928 41.4408 3.02187M32.5264 15.0129V10.7817C32.5231 10.218 32.6355 9.65963 32.8569 9.14101C33.0694 8.63538 33.378 8.17556 33.7656 7.78687C34.1566 7.40187 34.6171 7.09422 35.1228 6.88019C35.6436 6.66256 36.2026 6.55048 36.7672 6.55048C37.3319 6.55048 37.8908 6.66256 38.4116 6.88019C39.4342 7.30781 40.2469 8.12002 40.6737 9.14101C40.8963 9.65938 41.0101 10.2177 41.0081 10.7817V15.0129H32.5264ZM42.4872 16.1904H33.1952V15.4054H41.4133V10.7817C41.4167 10.1624 41.2921 9.54916 41.0474 8.98009C40.8149 8.42716 40.4768 7.9246 40.0521 7.50035L40.0246 7.4768C40.9691 7.97292 41.7106 8.78215 42.1214 9.7651C42.3661 10.3342 42.4907 10.9475 42.4872 11.5667V16.1904ZM42.4872 24.6606H41.4133V20.8219H42.4872V24.6606ZM43.6281 3.92071C42.741 3.04103 41.6943 2.33772 40.5439 1.84828C39.3478 1.34578 38.0631 1.08691 36.7653 1.08691C35.4675 1.08691 34.1828 1.34578 32.9867 1.84828C31.8336 2.33515 30.7852 3.03874 29.8985 3.92071C29.0206 4.8057 28.3185 5.84849 27.8292 6.99402C27.3211 8.18657 27.0627 9.47017 27.07 10.766V25.0767H32.5264V20.4412H41.0081V25.0767H46.4645V10.7817C46.4713 9.48591 46.2129 8.2024 45.7052 7.00972C45.2149 5.85825 44.5101 4.81004 43.6281 3.92071Z" fill="white"/>
<path d="M76.0597 20.037H86.5949V20.822H76.0597V20.037ZM70.3397 1.51074H74.9897V2.29575H71.4137V24.6685H70.3397V1.51074ZM69.9463 1.11824V25.0767H87.0119V19.6209H75.4067V1.10254L69.9463 1.11824Z" fill="white"/>
<path d="M0.865723 27.8164H1.65252L2.88386 30.7445L4.10339 27.8164H4.89019V31.6826H4.37483V28.5033L3.06482 31.6826H2.70683L1.40074 28.5033V31.6826H0.865723V27.8164Z" fill="white"/>
<path d="M7.08143 27.8164H7.55744L9.21364 31.6826H8.59601L8.20261 30.7249H6.36151L5.96811 31.6826H5.36621L7.08143 27.8164ZM8.02165 30.2696L7.30173 28.4954L6.56608 30.2696H8.02165Z" fill="white"/>
<path d="M10.9209 27.8164H11.4441V30.5639C11.4513 30.7688 11.4123 30.9727 11.33 31.1605C11.2627 31.302 11.1646 31.4267 11.0428 31.5256C10.9337 31.6128 10.8078 31.6769 10.673 31.714C10.5548 31.745 10.4333 31.7621 10.3111 31.765C10.0632 31.7724 9.81981 31.6979 9.61873 31.553C9.421 31.3957 9.29258 31.1676 9.26074 30.9172L9.77609 30.8034C9.79791 30.9348 9.86132 31.0559 9.95706 31.1488C10.0546 31.2343 10.1813 31.2792 10.3111 31.2744C10.4215 31.2796 10.5309 31.2523 10.6258 31.1959C10.7039 31.1463 10.7676 31.0773 10.8107 30.9957C10.8559 30.9086 10.8852 30.8143 10.8973 30.717C10.9131 30.6105 10.921 30.5029 10.9209 30.3952V27.8164Z" fill="white"/>
<path d="M14.123 31.7884C13.8437 31.7921 13.5665 31.7387 13.3087 31.6314C13.0692 31.5337 12.8523 31.3881 12.6714 31.2036C12.492 31.0187 12.3515 30.7998 12.2583 30.5599C12.0539 30.0442 12.0539 29.4702 12.2583 28.9545C12.3515 28.7146 12.492 28.4957 12.6714 28.3108C12.8505 28.1192 13.0675 27.9669 13.3087 27.8634C13.8348 27.651 14.423 27.651 14.9491 27.8634C15.1903 27.96 15.4087 28.1057 15.5904 28.2912C15.7614 28.4788 15.895 28.6973 15.9838 28.9349C16.1832 29.4515 16.1832 30.0236 15.9838 30.5402C15.895 30.7779 15.7614 30.9963 15.5904 31.1839C15.4098 31.3737 15.1914 31.5234 14.9491 31.6236C14.6882 31.7351 14.4069 31.7912 14.123 31.7884ZM14.123 31.2978C14.4195 31.3018 14.7098 31.2131 14.9532 31.0441C15.1966 30.8752 15.3809 30.6345 15.4802 30.3558C15.6172 29.9751 15.6172 29.5589 15.4802 29.1782C15.3804 28.8998 15.196 28.6595 14.9527 28.4906C14.7094 28.3218 14.4194 28.2328 14.123 28.2362C13.9276 28.2281 13.7327 28.2605 13.5505 28.3315C13.3684 28.4024 13.203 28.5103 13.0648 28.6484C12.9341 28.7895 12.8325 28.9548 12.7658 29.1351C12.6339 29.5165 12.6339 29.9311 12.7658 30.3126C12.8325 30.4928 12.9341 30.6582 13.0648 30.7993C13.1992 30.9451 13.3629 31.0611 13.5452 31.1395C13.7276 31.218 13.9245 31.2572 14.123 31.2546V31.2978Z" fill="white"/>
<path d="M16.9165 27.8171H18.2777C18.4869 27.811 18.6954 27.8457 18.8914 27.9191C19.0399 27.974 19.1742 28.0611 19.2848 28.1743C19.3743 28.2749 19.4402 28.3943 19.4775 28.5236C19.514 28.6512 19.5326 28.7833 19.5326 28.9161C19.5337 29.0383 19.5109 29.1596 19.4657 29.2733C19.422 29.3871 19.358 29.4922 19.2769 29.5833C19.1923 29.6792 19.091 29.759 18.9779 29.8189C18.8554 29.8826 18.7219 29.9226 18.5845 29.9366L19.6703 31.6833H18.9936L18.0102 29.9798H17.424V31.6833H16.9165V27.8171ZM17.4437 29.5206H18.0967C18.1981 29.5207 18.2994 29.5128 18.3996 29.497C18.4935 29.4833 18.5841 29.4527 18.6671 29.4067C18.7465 29.3628 18.812 29.2976 18.856 29.2183C18.9025 29.1181 18.9266 29.0089 18.9266 28.8984C18.9266 28.788 18.9025 28.6788 18.856 28.5785C18.812 28.4993 18.7465 28.434 18.6671 28.3901C18.5841 28.3442 18.4935 28.3136 18.3996 28.2999C18.2994 28.2841 18.1981 28.2762 18.0967 28.2763H17.424L17.4437 29.5206Z" fill="white"/>
<path d="M22.9744 27.8164H23.4504L25.1067 31.6826H24.4969L24.1035 30.7249H22.2624L21.869 31.6826H21.2671L22.9744 27.8164ZM23.9147 30.2696L23.2105 28.4954L22.4788 30.2696H23.9147Z" fill="white"/>
<path d="M25.6104 27.8172H26.9754C27.1835 27.8106 27.3907 27.8453 27.5852 27.9192C27.7337 27.9741 27.8681 28.0612 27.9786 28.1744C28.0695 28.274 28.1356 28.3937 28.1714 28.5237C28.2099 28.6509 28.2285 28.7833 28.2264 28.9162C28.2275 29.0385 28.2048 29.1597 28.1596 29.2734C28.1157 29.3863 28.0532 29.4911 27.9747 29.5835C27.8878 29.6785 27.7854 29.7582 27.6718 29.819C27.5493 29.8827 27.4158 29.9227 27.2784 29.9367L28.3799 31.6991H27.7072L26.7237 29.9956H26.1375V31.6991H25.6104V27.8172ZM26.1375 29.5207H26.826C26.9274 29.5208 27.0287 29.5129 27.1289 29.4971C27.2228 29.4834 27.3134 29.4528 27.3964 29.4068C27.4758 29.3629 27.5412 29.2977 27.5852 29.2184C27.6317 29.1182 27.6558 29.009 27.6558 28.8985C27.6558 28.7881 27.6317 28.6789 27.5852 28.5786C27.5412 28.4994 27.4758 28.4341 27.3964 28.3902C27.3134 28.3443 27.2228 28.3137 27.1289 28.3C27.0287 28.2842 26.9274 28.2763 26.826 28.2764H26.1375V29.5207Z" fill="white"/>
<path d="M28.9541 27.8164H31.4719V28.307H29.5049V29.461H31.346V29.9516H29.4773V31.1919H31.5505V31.6826H28.9541V27.8164Z" fill="white"/>
<path d="M32.2944 27.8164H32.9868L35.119 31.0035V27.8243H35.6423V31.6904H34.9892L32.8334 28.5111V31.6904H32.2944V27.8164Z" fill="white"/>
<path d="M37.8646 27.8164H38.3406L39.9968 31.6826H39.3831L38.9897 30.7249H37.1525L36.7591 31.6826H36.1572L37.8646 27.8164ZM38.8048 30.2696L38.0849 28.4954L37.3492 30.2696H38.8048Z" fill="white"/>
<path d="M42.1373 30.874C42.2261 31.0105 42.3515 31.1193 42.4993 31.188C42.6424 31.2539 42.798 31.2887 42.9556 31.2901C43.0477 31.2888 43.1391 31.2743 43.227 31.2469C43.316 31.2208 43.3999 31.1796 43.4749 31.1252C43.5491 31.0708 43.6108 31.0012 43.6558 30.9211C43.7045 30.8364 43.729 30.74 43.7267 30.6424C43.7304 30.5791 43.7196 30.5158 43.695 30.4573C43.6705 30.3988 43.6329 30.3466 43.585 30.3049C43.4804 30.22 43.362 30.1536 43.2349 30.1086C43.0933 30.0537 42.9399 30.0026 42.7746 29.9555C42.6125 29.9072 42.4577 29.8372 42.3144 29.7475C42.1714 29.6592 42.0504 29.5398 41.9603 29.3982C41.8573 29.2168 41.8082 29.0098 41.8187 28.8016C41.8256 28.5342 41.9355 28.2798 42.1255 28.0911C42.2383 27.9779 42.3719 27.8873 42.5189 27.8242C42.7091 27.7491 42.9124 27.7131 43.1169 27.7183C43.3219 27.7186 43.5258 27.7477 43.7227 27.8046C43.9252 27.8699 44.1034 27.9943 44.2341 28.1618L43.8053 28.5543C43.7358 28.4487 43.6394 28.3633 43.526 28.307C43.4042 28.2449 43.2694 28.2126 43.1326 28.2128C43.008 28.2093 42.8839 28.2293 42.7668 28.2717C42.6797 28.3045 42.6006 28.3553 42.5347 28.4209C42.4805 28.4754 42.4389 28.541 42.4127 28.6132C42.3906 28.675 42.3786 28.7399 42.3773 28.8055C42.37 28.8773 42.3789 28.9499 42.4034 29.0178C42.4279 29.0857 42.4674 29.1473 42.5189 29.198C42.6214 29.2927 42.7418 29.366 42.873 29.4139C43.0233 29.4716 43.177 29.5201 43.3333 29.5591C43.4928 29.6004 43.6462 29.6624 43.7896 29.7436C43.9293 29.8211 44.0501 29.9283 44.1437 30.0576C44.2463 30.2219 44.2958 30.4138 44.2853 30.6071C44.2873 30.7803 44.2511 30.9519 44.1791 31.1095C44.114 31.2601 44.0159 31.3943 43.8919 31.502C43.7667 31.607 43.6225 31.6869 43.467 31.7375C43.297 31.7934 43.1189 31.8213 42.9399 31.8199C42.6986 31.822 42.4593 31.7767 42.2357 31.6865C42.0233 31.6116 41.8382 31.4749 41.7046 31.294L42.1373 30.874Z" fill="white"/>
<path d="M46.8419 31.789C46.5626 31.7927 46.2855 31.7392 46.0276 31.632C45.7871 31.5362 45.5698 31.3903 45.3903 31.2041C45.2097 31.0194 45.0679 30.8006 44.9733 30.5604C44.7739 30.0438 44.7739 29.4717 44.9733 28.9551C45.0679 28.7149 45.2097 28.4961 45.3903 28.3114C45.5679 28.1181 45.7853 27.9654 46.0276 27.8639C46.5503 27.6547 47.1336 27.6547 47.6563 27.8639C47.8957 27.9617 48.1126 28.1072 48.2936 28.2917C48.4729 28.4774 48.6145 28.696 48.7106 28.9355C48.91 29.4521 48.91 30.0242 48.7106 30.5408C48.6145 30.7802 48.4729 30.9988 48.2936 31.1845C48.1126 31.369 47.8957 31.5146 47.6563 31.6123C47.3998 31.7263 47.1227 31.7865 46.8419 31.789ZM46.8419 31.2983C47.0405 31.3009 47.2374 31.2617 47.4197 31.1833C47.6021 31.1048 47.7658 30.9889 47.9002 30.843C48.0309 30.7019 48.1325 30.5366 48.1992 30.3563C48.331 29.9748 48.331 29.5603 48.1992 29.1788C48.1325 28.9986 48.0309 28.8332 47.9002 28.6921C47.7658 28.5462 47.6021 28.4303 47.4197 28.3519C47.2374 28.2734 47.0405 28.2342 46.8419 28.2368C46.5455 28.2328 46.2552 28.3215 46.0118 28.4904C45.7684 28.6594 45.5841 28.9001 45.4847 29.1788C45.3478 29.5594 45.3478 29.9757 45.4847 30.3563C45.5846 30.6347 45.769 30.8751 46.0123 31.044C46.2556 31.2128 46.5456 31.3017 46.8419 31.2983Z" fill="white"/>
<path d="M52.322 28.6492C52.2127 28.5073 52.0693 28.3953 51.905 28.3234C51.7432 28.2452 51.5656 28.2049 51.3857 28.2057C51.1821 28.2031 50.9805 28.246 50.7956 28.3313C50.6221 28.4099 50.4668 28.5235 50.3393 28.6649C50.2108 28.8107 50.112 28.98 50.0482 29.1634C49.9763 29.3608 49.9403 29.5695 49.942 29.7796C49.942 29.9761 49.9752 30.1711 50.0403 30.3566C50.1038 30.5345 50.2014 30.6985 50.3275 30.8394C50.4531 30.9791 50.6074 31.0902 50.7799 31.1651C50.9711 31.2476 51.1775 31.289 51.3857 31.2868C51.5896 31.2911 51.7913 31.2439 51.9719 31.1494C52.1438 31.054 52.2907 30.9196 52.4007 30.7569L52.8413 31.0906C52.796 31.153 52.7446 31.2108 52.6879 31.2633C52.6015 31.3491 52.5051 31.4242 52.4007 31.487C52.2633 31.5692 52.1168 31.6351 51.964 31.6832C51.7748 31.7444 51.5767 31.7736 51.3779 31.7696C51.1034 31.7722 50.8315 31.7169 50.58 31.6073C50.3284 31.4978 50.103 31.3364 49.9184 31.1337C49.7472 30.9477 49.6136 30.7305 49.525 30.494C49.4354 30.2636 49.3887 30.0188 49.3873 29.7717C49.3853 29.4888 49.436 29.208 49.5368 28.9436C49.6294 28.6999 49.7699 28.477 49.9498 28.2881C50.1265 28.1067 50.3379 27.9626 50.5714 27.8642C50.8327 27.7597 51.1121 27.7077 51.3936 27.7111C51.6513 27.7128 51.9063 27.7634 52.145 27.8602C52.3836 27.9524 52.5919 28.1086 52.7469 28.3116L52.322 28.6492Z" fill="white"/>
<path d="M56.1619 28.6492C56.0525 28.5073 55.9091 28.3953 55.7449 28.3234C55.583 28.2452 55.4054 28.2049 55.2256 28.2057C55.0207 28.2035 54.8179 28.2464 54.6315 28.3313C54.4592 28.41 54.3052 28.5236 54.1791 28.6649C54.0507 28.8107 53.9518 28.98 53.888 29.1634C53.8162 29.3608 53.7802 29.5695 53.7818 29.7796C53.7818 29.9761 53.8151 30.1711 53.8802 30.3566C53.9438 30.5336 54.0398 30.6973 54.1634 30.8394C54.2905 30.9792 54.4461 31.0903 54.6197 31.1651C54.8109 31.2476 55.0173 31.289 55.2256 31.2868C55.4294 31.2908 55.631 31.2435 55.8117 31.1494C55.9833 31.055 56.1291 30.9203 56.2366 30.7569L56.6811 31.0906C56.6358 31.153 56.5844 31.2108 56.5277 31.2633C56.4407 31.3499 56.3428 31.4251 56.2366 31.487C56.101 31.57 55.9557 31.6359 55.8039 31.6832C55.6147 31.7444 55.4165 31.7736 55.2177 31.7696C54.9433 31.7722 54.6713 31.7169 54.4198 31.6073C54.1683 31.4978 53.9428 31.3364 53.7582 31.1337C53.587 30.9477 53.4534 30.7305 53.3648 30.494C53.2752 30.2636 53.2286 30.0188 53.2271 29.7717C53.2251 29.4888 53.2758 29.208 53.3766 28.9436C53.4693 28.6999 53.6097 28.477 53.7897 28.2881C53.9698 28.1054 54.1853 27.9612 54.423 27.8642C54.683 27.7597 54.9611 27.7077 55.2413 27.7111C55.5003 27.7124 55.7567 27.763 55.9966 27.8602C56.2347 27.9532 56.4428 28.1093 56.5985 28.3116L56.1619 28.6492Z" fill="white"/>
<path d="M57.3145 27.8164H59.8165V28.307H57.8496V29.461H59.6867V29.9516H57.8299V31.1919H59.9031V31.6826H57.3027L57.3145 27.8164Z" fill="white"/>
<path d="M60.6582 27.8171H62.0194C62.2287 27.811 62.4371 27.8457 62.6331 27.9191C62.7816 27.974 62.916 28.0611 63.0265 28.1743C63.116 28.2749 63.1819 28.3943 63.2193 28.5236C63.2558 28.6512 63.2743 28.7833 63.2743 28.9161C63.2735 29.0382 63.2508 29.1591 63.2075 29.2733C63.1637 29.3871 63.0998 29.4922 63.0186 29.5833C62.9332 29.6783 62.8321 29.758 62.7196 29.8189C62.5972 29.8826 62.4637 29.9226 62.3262 29.9366L63.4238 31.6989H62.7708L61.7637 29.9798H61.1775V31.6833H60.6543L60.6582 27.8171ZM61.1815 29.5206H61.8738C61.9753 29.5205 62.0765 29.5126 62.1768 29.497C62.2705 29.4825 62.3609 29.4519 62.4443 29.4067C62.5237 29.3628 62.5891 29.2976 62.6331 29.2183C62.6796 29.1181 62.7037 29.0089 62.7037 28.8984C62.7037 28.788 62.6796 28.6788 62.6331 28.5785C62.5891 28.4993 62.5237 28.434 62.4443 28.3901C62.3609 28.3449 62.2705 28.3144 62.1768 28.2999C62.0765 28.2842 61.9753 28.2764 61.8738 28.2763H61.1815V29.5206Z" fill="white"/>
<path d="M65.5205 27.8164H66.0477V31.1919H67.8258V31.6826H65.5205V27.8164Z" fill="white"/>
<path d="M68.3608 27.8164H70.8589V28.307H68.8919V29.461H70.733V29.9516H68.8841V31.1919H70.9573V31.6826H68.3608V27.8164Z" fill="white"/>
<path d="M72.9164 27.8164H73.3924L75.0486 31.6826H74.4388L74.0454 30.7249H72.2004L71.807 31.6826H71.2051L72.9164 27.8164ZM73.8566 30.2696L73.1367 28.4954L72.3853 30.2696H73.8566Z" fill="white"/>
<path d="M78.8529 29.5204V31.424C78.7509 31.4859 78.6428 31.5372 78.5303 31.5771C78.4013 31.622 78.27 31.66 78.1369 31.6909C78.0073 31.7211 77.8759 31.7434 77.7436 31.7576C77.6195 31.7728 77.4948 31.7807 77.3698 31.7812C77.0692 31.7864 76.7707 31.7303 76.4925 31.6163C76.2465 31.5152 76.0241 31.3641 75.8395 31.1728C75.6655 30.9874 75.5316 30.7683 75.4461 30.5291C75.2549 30.0231 75.2549 29.4651 75.4461 28.9591C75.5422 28.7197 75.6838 28.5011 75.8631 28.3154C76.0464 28.1206 76.269 27.9668 76.5162 27.864C76.774 27.7567 77.0511 27.7033 77.3305 27.707C77.6286 27.6988 77.9257 27.744 78.2078 27.8405C78.4204 27.9225 78.6134 28.0482 78.7743 28.2094L78.4045 28.6019C78.2592 28.4591 78.0848 28.3494 77.893 28.2801C77.7116 28.2199 77.5217 28.1894 77.3305 28.1898C77.1231 28.1877 76.9177 28.2305 76.7286 28.3154C76.5555 28.395 76.3993 28.5069 76.2683 28.6451C76.1402 28.7874 76.0401 28.9525 75.9733 29.1318C75.9053 29.3234 75.8707 29.5252 75.871 29.7284C75.8693 29.9366 75.908 30.1432 75.9851 30.3368C76.0601 30.528 76.174 30.7017 76.3195 30.847C76.4546 30.9864 76.6165 31.0972 76.7955 31.1728C76.9833 31.2524 77.1855 31.2925 77.3895 31.2906C77.5667 31.291 77.7434 31.2726 77.9166 31.2356C78.0658 31.2107 78.2096 31.1602 78.3415 31.0865V30.011H77.4839V29.5204H78.8529Z" fill="white"/>
<path d="M80.2533 27.8164V30.1714C80.254 30.3039 80.2712 30.4357 80.3044 30.5639C80.3358 30.6926 80.3919 30.8139 80.4696 30.9211C80.5466 31.0325 80.6491 31.124 80.7686 31.188C80.912 31.2578 81.0694 31.294 81.2289 31.294C81.3884 31.294 81.5458 31.2578 81.6892 31.188C81.8087 31.124 81.9112 31.0325 81.9882 30.9211C82.0659 30.8139 82.1221 30.6926 82.1534 30.5639C82.1854 30.4356 82.2013 30.3037 82.2006 30.1714V27.8164H82.7277V30.2696C82.7297 30.4791 82.691 30.687 82.6137 30.8819C82.5384 31.06 82.4303 31.2224 82.295 31.3607C82.1584 31.4945 81.9966 31.5998 81.819 31.6708C81.4393 31.8173 81.0185 31.8173 80.6388 31.6708C80.4607 31.6008 80.2987 31.4953 80.1628 31.3607C80.0275 31.2224 79.9194 31.06 79.8441 30.8819C79.7668 30.687 79.7281 30.4791 79.7301 30.2696V27.8164H80.2533Z" fill="white"/>
<path d="M83.6602 27.8164H86.1543V28.307H84.1873V29.461H86.0284V29.9516H84.1873V31.1919H86.2605V31.6826H83.6641L83.6602 27.8164Z" fill="white"/>
</g>
<defs>
<clipPath id="clip0_3_2066">
<rect width="87" height="31" fill="white" transform="translate(0 0.78125)"/>
</clipPath>
</defs>
</svg>
