<?xml version="1.0" encoding="utf-8"?>
<!-- Generator: Adobe Illustrator 26.0.3, SVG Export Plug-In . SVG Version: 6.00 Build 0)  -->
<svg version="1.1" id="Layer_1" xmlns="http://www.w3.org/2000/svg" xmlns:xlink="http://www.w3.org/1999/xlink" x="0px" y="0px"
	 viewBox="0 0 100 100" style="enable-background:new 0 0 100 100;" xml:space="preserve">
<style type="text/css">
	.st0{fill:#26A6FF;}
</style>
<g>
	<path class="st0" d="M49.8,19.2C71.3,20,87.4,29.9,98.4,48.4c0.6,1,0.6,2,0,3C89.7,66.5,77,76.3,59.8,79.7
		c-23,4.5-45.1-6.3-57.3-25.5C2,53.3,1.5,52.4,1,51.5c-0.6-1-0.6-2.1,0-3.1C9.3,34,21.4,24.5,37.7,20.6
		C41.6,19.7,45.7,19.3,49.8,19.2z M66,50c0-9-7.3-16.3-16.3-16.3c-9,0-16.3,7.3-16.3,16.3c0,9,7.3,16.3,16.2,16.4
		C58.6,66.3,66,59,66,50z"/>
	<path class="st0" d="M26.9,95.3c-2.2,0-3.7-2-2.9-3.8c1.3-2.8,2.7-5.6,4.1-8.3c0.7-1.3,2.4-1.7,3.7-1c1.3,0.7,2,2.2,1.4,3.5
		c-1.3,2.8-2.7,5.6-4.1,8.3C28.5,94.9,27.6,95.2,26.9,95.3z"/>
	<path class="st0" d="M69,18.1c-2.1,0-3.6-2-2.8-3.8c1.3-2.8,2.7-5.6,4.1-8.3c0.7-1.3,2.3-1.6,3.6-1c1.3,0.6,2.1,2.2,1.4,3.5
		c-1.3,2.8-2.7,5.6-4.1,8.3C70.8,17.7,69.8,18.1,69,18.1z"/>
	<path class="st0" d="M33.3,15c0,1.5-0.8,2.5-2,2.9c-1.2,0.4-2.6-0.1-3.2-1.2c-1.4-2.7-2.8-5.4-4.1-8.2C23.3,7.2,24,5.6,25.3,5
		c1.3-0.7,3-0.3,3.7,1c1.4,2.7,2.8,5.5,4.1,8.2C33.3,14.5,33.3,14.9,33.3,15z"/>
	<path class="st0" d="M69.1,81.8c0.9,0.1,1.8,0.6,2.3,1.6c1.3,2.6,2.6,5.1,3.8,7.7c0.7,1.5,0.1,3.1-1.3,3.8
		c-1.4,0.7-3.1,0.2-3.8-1.3c-1.3-2.5-2.6-5.1-3.8-7.7C65.4,84,66.7,81.8,69.1,81.8z"/>
	<path class="st0" d="M52.5,92.3c0,1.3,0,2.6,0,3.8c0,1.7-1.3,3-2.9,3c-1.6,0-2.9-1.3-2.9-2.9c0-2.5,0-5,0-7.6
		c0-1.7,1.3-2.9,2.9-2.9c1.6,0,2.8,1.3,2.8,2.9C52.6,89.8,52.5,91.1,52.5,92.3z"/>
	<path class="st0" d="M46.8,7.5c0-1.2,0-2.4,0-3.6c0-1.7,1.2-3,2.8-3c1.6,0,2.9,1.3,2.9,3c0,2.5,0,4.9,0,7.4c0,1.8-1.2,3-2.9,3
		c-1.6,0-2.8-1.3-2.9-3.1C46.8,9.9,46.8,8.7,46.8,7.5z"/>
	<path class="st0" d="M49.6,60.5c-5.8,0-10.5-4.8-10.5-10.6c0-5.8,4.8-10.5,10.6-10.5c5.8,0,10.5,4.8,10.5,10.6
		C60.2,55.8,55.4,60.5,49.6,60.5z"/>
</g>
</svg>
