<svg width="116" height="74" viewBox="0 0 116 74" fill="none" xmlns="http://www.w3.org/2000/svg">
<path d="M101.109 48.3164H15.001V60.7644H101.109V48.3164Z" fill="#7FFE1C"/>
<path d="M42.2404 56.684C42.6084 56.684 42.9424 56.63 43.2424 56.522C43.5464 56.414 43.7724 56.308 43.9204 56.204L44.6884 57.728C44.5004 57.888 44.1784 58.05 43.7224 58.214C43.2704 58.378 42.7324 58.46 42.1084 58.46C41.5244 58.46 40.9764 58.358 40.4644 58.154C39.9524 57.95 39.5004 57.664 39.1084 57.296C38.7204 56.924 38.4144 56.49 38.1904 55.994C37.9704 55.494 37.8604 54.952 37.8604 54.368C37.8604 53.784 37.9704 53.242 38.1904 52.742C38.4104 52.238 38.7144 51.8 39.1024 51.428C39.4944 51.056 39.9464 50.768 40.4584 50.564C40.9744 50.356 41.5244 50.252 42.1084 50.252C42.7324 50.252 43.2704 50.334 43.7224 50.498C44.1784 50.662 44.5004 50.824 44.6884 50.984L43.9204 52.508C43.7724 52.4 43.5464 52.294 43.2424 52.19C42.9424 52.082 42.6084 52.028 42.2404 52.028C41.8324 52.028 41.4764 52.092 41.1724 52.22C40.8684 52.344 40.6144 52.516 40.4104 52.736C40.2064 52.956 40.0544 53.204 39.9544 53.48C39.8544 53.756 39.8044 54.046 39.8044 54.35C39.8044 54.658 39.8544 54.952 39.9544 55.232C40.0544 55.508 40.2064 55.756 40.4104 55.976C40.6144 56.196 40.8684 56.37 41.1724 56.498C41.4764 56.622 41.8324 56.684 42.2404 56.684Z" fill="black"/>
<path d="M45.7447 50.396H48.9727C49.4327 50.396 49.8427 50.492 50.2027 50.684C50.5627 50.876 50.8467 51.154 51.0547 51.518C51.2667 51.878 51.3727 52.308 51.3727 52.808C51.3727 53.308 51.2827 53.718 51.1027 54.038C50.9267 54.354 50.7147 54.592 50.4667 54.752C50.2187 54.908 49.9887 55.002 49.7767 55.034L51.7027 58.316H49.6867L47.9707 55.172H47.5387V58.316H45.7447V50.396ZM47.5387 53.93H48.3307C48.6507 53.93 48.9307 53.852 49.1707 53.696C49.4107 53.54 49.5307 53.264 49.5307 52.868C49.5307 52.472 49.4127 52.198 49.1767 52.046C48.9407 51.89 48.6627 51.812 48.3427 51.812H47.5387V53.93Z" fill="black"/>
<path d="M52.8823 50.396H57.9403V51.968H54.6703V53.582H57.9103V55.106H54.6703V56.744H57.9403V58.316H52.8823V50.396Z" fill="black"/>
<path d="M61.6495 50.396H63.4315L66.5575 58.316H64.6435L64.0675 56.726H61.0195L60.4375 58.316H58.5175L61.6495 50.396ZM61.6195 55.154H63.4735L62.5555 52.556H62.5375L61.6195 55.154Z" fill="black"/>
<path d="M67.8934 51.968H66.0034V50.396H71.5714V51.968H69.6874V58.316H67.8934V51.968Z" fill="black"/>
<path d="M72.5346 50.396H77.5926V51.968H74.3226V53.582H77.5626V55.106H74.3226V56.744H77.5926V58.316H72.5346V50.396Z" fill="black"/>
<path d="M88.7259 46.4942C90.2075 41.5867 90.5194 36.4015 89.638 31.3516C88.7566 26.3017 86.7061 21.5275 83.6497 17.4121C80.5933 13.2967 76.6161 9.9537 72.0364 7.65041C67.4568 5.34712 62.4019 4.14748 57.2757 4.14748C52.1495 4.14748 47.0946 5.34712 42.515 7.65041C37.9353 9.9537 33.9581 13.2967 30.9017 17.4121C27.8453 21.5275 25.7948 26.3017 24.9134 31.3516C24.032 36.4015 24.3439 41.5867 25.8255 46.4942H21.8255C19.4963 37.9785 20.3059 28.9093 24.1058 20.9405C27.9056 12.9716 34.4427 6.63473 42.5257 3.08401C47.1772 1.04734 52.2008 -0.00153366 57.2786 0.00392747H57.2884C62.3608 0.000103903 67.3791 1.04863 72.0257 3.08303C80.1108 6.63109 86.6503 12.9678 90.4505 20.9375C94.2508 28.9072 95.0586 37.9775 92.7259 46.4932L88.7259 46.4942ZM82.0257 46.4942C83.4127 42.9579 84.0266 39.1663 83.8265 35.3731C83.6263 31.5798 82.6169 27.8736 80.8655 24.503C79.1141 21.1323 76.6611 18.1753 73.6722 15.8311C70.6833 13.4869 67.2273 11.8089 63.5364 10.9112C63.2284 10.8362 62.9188 10.7681 62.6058 10.7041L62.5413 10.6905L62.4339 10.6699L62.347 10.6514L62.2669 10.6367L62.1605 10.6153L62.1068 10.6055C60.7397 10.3548 59.3555 10.2113 57.9661 10.1758H57.9505H57.805H57.7581H57.6321H56.9124H56.7864H56.7396H56.5941H56.5784C55.1897 10.2109 53.8061 10.3543 52.4398 10.6055L52.3831 10.6153L52.2825 10.6367L52.2005 10.6524L52.1155 10.6699L52.0072 10.6905L51.9417 10.7041C51.6297 10.7681 51.3201 10.8362 51.0111 10.9112C47.32 11.8085 43.8633 13.4859 40.8743 15.8301C37.8853 18.1743 35.4332 21.1311 33.682 24.502C31.9307 27.8728 30.9216 31.5797 30.722 35.3731C30.5224 39.1664 31.1369 42.9582 32.5247 46.4942H27.9945C25.4924 38.7579 26.1498 30.3468 29.8226 23.0928C33.4954 15.8388 39.8864 10.3301 47.6029 7.7676L47.5892 7.7549C50.7041 6.72424 53.9634 6.1989 57.2445 6.20022H57.3079C60.5883 6.19887 63.847 6.72422 66.9613 7.7549L66.9476 7.76662C74.6641 10.3294 81.0551 15.8376 84.7279 23.0918C88.4007 30.346 89.058 38.7577 86.556 46.4942H82.0257Z" fill="white"/>
<path d="M66.7788 61.6035C60.6554 63.9396 53.8863 63.9396 47.7628 61.6035H30.1748C33.6182 65.36 37.8051 68.3593 42.4697 70.4113C47.1342 72.4632 52.1744 73.5228 57.2703 73.5228C62.3662 73.5228 67.4064 72.4632 72.0709 70.4113C76.7354 68.3593 80.9224 65.36 84.3658 61.6035H66.7788Z" fill="white"/>
<path d="M100.576 61.0332H92.2812V64.5771L100.576 61.0332Z" fill="#212D3D"/>
<path d="M115.163 65.5303L92.2812 65.6304L101.632 61.3883V52.8203H115.11L108.138 59.3793L115.163 65.5303Z" fill="#7FFE1C"/>
<path d="M0 65.6368L22.882 65.7368L13.531 61.4949V52.9219H0.0499878L7.02197 59.4808L0 65.6368Z" fill="#7FFE1C"/>
<path d="M14.5879 61.1348H22.8829V64.6798L14.5879 61.1348Z" fill="#212D3D"/>
<path d="M47.7568 66.3572H48.6538V69.5312H50.0908V70.3172H47.7568V66.3572Z" fill="#212D3D"/>
<path d="M50.6742 66.3572H53.2032V67.1432H51.5682V67.9502H53.1882V68.7122H51.5682V69.5312H53.2032V70.3172H50.6742V66.3572Z" fill="#212D3D"/>
<path d="M55.0579 66.3572H55.9489L57.5119 70.3172H56.5549L56.2669 69.5222H54.7429L54.4519 70.3172H53.4919L55.0579 66.3572ZM55.0429 68.7362H55.9699L55.5109 67.4372H55.5019L55.0429 68.7362Z" fill="#212D3D"/>
<path d="M59.5308 68.1032H61.5498V68.3552C61.5498 68.6392 61.5018 68.9042 61.4058 69.1502C61.3118 69.3962 61.1768 69.6122 61.0008 69.7982C60.8248 69.9842 60.6148 70.1292 60.3708 70.2332C60.1268 70.3372 59.8568 70.3892 59.5608 70.3892C59.2548 70.3892 58.9768 70.3372 58.7268 70.2332C58.4788 70.1272 58.2648 69.9802 58.0848 69.7922C57.9048 69.6042 57.7668 69.3862 57.6708 69.1382C57.5748 68.8882 57.5268 68.6202 57.5268 68.3342C57.5268 68.0502 57.5748 67.7842 57.6708 67.5362C57.7668 67.2862 57.9048 67.0682 58.0848 66.8822C58.2648 66.6942 58.4788 66.5482 58.7268 66.4442C58.9768 66.3382 59.2548 66.2852 59.5608 66.2852C59.8108 66.2852 60.0308 66.3122 60.2208 66.3662C60.4128 66.4202 60.5778 66.4922 60.7158 66.5822C60.8538 66.6722 60.9708 66.7712 61.0668 66.8792C61.1628 66.9852 61.2428 67.0892 61.3068 67.1912L60.4548 67.5932C60.3728 67.4672 60.2608 67.3572 60.1188 67.2632C59.9788 67.1692 59.7928 67.1222 59.5608 67.1222C59.3988 67.1222 59.2498 67.1542 59.1138 67.2182C58.9798 67.2822 58.8638 67.3702 58.7658 67.4822C58.6678 67.5922 58.5918 67.7212 58.5378 67.8692C58.4858 68.0152 58.4598 68.1702 58.4598 68.3342C58.4598 68.5002 58.4858 68.6562 58.5378 68.8022C58.5918 68.9482 58.6678 69.0772 58.7658 69.1892C58.8638 69.3012 58.9798 69.3892 59.1138 69.4532C59.2498 69.5152 59.3988 69.5462 59.5608 69.5462C59.7028 69.5462 59.8318 69.5282 59.9478 69.4922C60.0638 69.4562 60.1638 69.4042 60.2478 69.3362C60.3338 69.2682 60.4008 69.1882 60.4488 69.0962C60.4988 69.0022 60.5288 68.8992 60.5388 68.7872H59.5308V68.1032Z" fill="#212D3D"/>
<path d="M64.3539 66.3572H65.2509V68.7902C65.2509 69.1162 65.1869 69.3992 65.0589 69.6392C64.9309 69.8772 64.7479 70.0622 64.5099 70.1942C64.2719 70.3242 63.9879 70.3892 63.6579 70.3892C63.3259 70.3892 63.0399 70.3242 62.7999 70.1942C62.5599 70.0622 62.3759 69.8772 62.2479 69.6392C62.1219 69.3992 62.0589 69.1162 62.0589 68.7902V66.3572H62.9529V68.7422C62.9529 68.9222 62.9809 69.0742 63.0369 69.1982C63.0949 69.3222 63.1769 69.4162 63.2829 69.4802C63.3889 69.5422 63.5139 69.5732 63.6579 69.5732C63.7999 69.5732 63.9229 69.5422 64.0269 69.4802C64.1309 69.4162 64.2109 69.3222 64.2669 69.1982C64.3249 69.0742 64.3539 68.9222 64.3539 68.7422V66.3572Z" fill="#212D3D"/>
<path d="M65.8852 66.3572H68.4142V67.1432H66.7792V67.9502H68.3992V68.7122H66.7792V69.5312H68.4142V70.3172H65.8852V66.3572Z" fill="#212D3D"/>
<path d="M63.3499 46.3193H52.4592C52.2982 46.0803 52.1188 45.8192 51.8938 45.4932C51.7938 45.3532 51.7085 45.2134 51.6155 45.0654V45.0576C42.4265 44.0656 39.4811 29.6577 38.7981 25.2637C38.7458 24.9235 38.7681 24.5761 38.8626 24.2451C38.957 23.9142 39.122 23.608 39.346 23.3467C39.5699 23.0853 39.8469 22.8755 40.1594 22.7314C40.472 22.5874 40.8124 22.5122 41.1565 22.5117H47.6155C47.6155 22.1797 47.6242 21.8904 47.6272 21.7344C47.6322 21.508 47.7254 21.2924 47.887 21.1338C48.0486 20.9752 48.266 20.8855 48.4924 20.8848H49.5413C49.5468 20.6395 49.648 20.4068 49.8235 20.2354C49.999 20.0639 50.2354 19.9675 50.4807 19.9678H51.3352C51.3357 19.9641 51.3357 19.9607 51.3352 19.957V19.9512C51.3347 19.9485 51.3347 19.946 51.3352 19.9434C51.3352 19.694 51.4346 19.4549 51.6106 19.2783C51.7866 19.1017 52.0254 19.0018 52.2747 19.001H55.594V18.9736C55.5886 18.9369 55.5858 18.9004 55.5852 18.8633C55.5852 18.6246 55.6801 18.3953 55.8489 18.2266C56.0177 18.0578 56.2469 17.9629 56.4856 17.9629H56.5911C56.0894 17.6728 55.6983 17.2259 55.4768 16.6904C55.2553 16.155 55.2163 15.5606 55.3665 15.001C55.5166 14.4413 55.8471 13.9474 56.3069 13.5947C56.7667 13.242 57.33 13.0508 57.9094 13.0508C58.4889 13.0508 59.0522 13.242 59.512 13.5947C59.9718 13.9474 60.3022 14.4413 60.4524 15.001C60.6026 15.5606 60.5645 16.155 60.343 16.6904C60.1215 17.2259 59.7294 17.6728 59.2278 17.9629H59.3333C59.572 17.9629 59.8012 18.0578 59.97 18.2266C60.1388 18.3953 60.2337 18.6246 60.2337 18.8633C60.233 18.8968 60.2302 18.9298 60.2249 18.9629C60.2254 18.9689 60.2254 18.9745 60.2249 18.9805C60.2249 18.9865 60.2249 18.993 60.2249 18.999H63.5422C63.7919 18.9996 64.0317 19.0988 64.2083 19.2754C64.3848 19.4519 64.4841 19.6917 64.4846 19.9414C64.4851 19.9461 64.4851 19.9504 64.4846 19.9551V19.9609H65.3391C65.5847 19.9596 65.8208 20.0549 65.9963 20.2266C66.1719 20.3982 66.2734 20.6324 66.2776 20.8779H67.3284C67.5554 20.8766 67.7738 20.965 67.9358 21.124C68.0978 21.2831 68.1907 21.4995 68.1936 21.7266C68.1996 21.9766 68.2033 22.2269 68.2063 22.5049H74.6643C75.0085 22.5054 75.3488 22.5806 75.6614 22.7246C75.974 22.8686 76.2518 23.0785 76.4758 23.3398C76.6998 23.6012 76.8647 23.9073 76.9592 24.2383C77.0538 24.5692 77.0758 24.9166 77.0237 25.2568C76.3387 29.6508 73.3903 44.0568 64.2053 45.0508V45.0576C64.1113 45.2046 64.022 45.3463 63.927 45.4863C63.713 45.7943 63.5276 46.0635 63.3616 46.3115L63.3499 46.3193ZM68.1731 25.5664C68.0611 30.0784 67.5732 36.4919 65.8792 41.4229C68.1192 40.3109 70.0449 37.7598 71.5979 33.8408C72.6205 31.1622 73.3811 28.3915 73.8704 25.5664H68.1731ZM41.9397 25.5664C42.429 28.3915 43.1897 31.1622 44.2122 33.8408C45.7652 37.7588 47.6899 40.3099 49.9319 41.4229C48.2389 36.4909 47.748 30.0774 47.636 25.5664H41.9397Z" fill="#7FFE1C"/>
<path d="M63.7633 28.2522C63.7208 28.126 63.6444 28.0139 63.5425 27.9282C63.4405 27.8425 63.317 27.7864 63.1853 27.7662L60.0613 27.2882L58.6573 24.2982C58.5989 24.1735 58.5061 24.068 58.3898 23.994C58.2735 23.9201 58.1386 23.8809 58.0008 23.8809C57.863 23.8809 57.7281 23.9201 57.6118 23.994C57.4956 24.068 57.4028 24.1735 57.3443 24.2982L55.9443 27.2882L52.8163 27.7652C52.6846 27.7854 52.561 27.8415 52.4591 27.9274C52.3571 28.0133 52.2809 28.1255 52.2386 28.2519C52.1963 28.3783 52.1897 28.5139 52.2195 28.6438C52.2492 28.7737 52.3142 28.8929 52.4073 28.9882L54.6893 31.3282L54.1493 34.6382C54.1275 34.7726 54.144 34.9104 54.1967 35.0358C54.2495 35.1613 54.3365 35.2694 54.4477 35.3478C54.559 35.4262 54.69 35.4718 54.8259 35.4793C54.9618 35.4868 55.0971 35.4559 55.2163 35.3902L58.0013 33.8502L60.7863 35.3902C60.9055 35.4559 61.0408 35.4868 61.1767 35.4793C61.3126 35.4718 61.4436 35.4262 61.5549 35.3478C61.6662 35.2694 61.7531 35.1613 61.8059 35.0358C61.8587 34.9104 61.8751 34.7726 61.8533 34.6382L61.3133 31.3282L63.5963 28.9882C63.6889 28.8927 63.7535 28.7734 63.783 28.6436C63.8124 28.5138 63.8056 28.3784 63.7633 28.2522Z" fill="black"/>
</svg>
