<svg width="116" height="85" viewBox="0 0 116 85" fill="none" xmlns="http://www.w3.org/2000/svg">
<path d="M51.0146 30.365C53.0149 29.6098 55.1307 29.2066 57.2686 29.1731L25.3976 0.75L50.1246 28.271L29.2836 9.30811L47.2296 30.089L22.0156 7.66809L43.5726 32.348L25.3976 16.6781L38.8886 31.504L12.5626 7.45105L30.3626 29.0031L17.6576 17.442L38.6786 41.3151L11.5186 17.2731L38.9726 47.4451C39.0437 43.7209 40.2288 40.1033 42.3752 37.059C44.5215 34.0146 47.5307 31.6831 51.0146 30.365Z" fill="#7FFE1C"/>
<path d="M101.109 59H15.001V71.448H101.109V59Z" fill="#7FFE1C"/>
<path d="M49.3119 66.5635C49.3119 67.1035 49.2099 67.5675 49.0059 67.9555C48.8059 68.3395 48.5179 68.6335 48.1419 68.8375C47.7699 69.0415 47.3299 69.1435 46.8219 69.1435C46.4539 69.1435 46.1339 69.0955 45.8619 68.9995C45.5899 68.9075 45.3739 68.8075 45.2139 68.6995C45.0539 68.5875 44.9559 68.5035 44.9199 68.4475L45.5919 66.8935C45.6399 66.9615 45.7079 67.0355 45.7959 67.1155C45.8839 67.1955 45.9919 67.2655 46.1199 67.3255C46.2479 67.3815 46.3919 67.4095 46.5519 67.4095C46.7359 67.4095 46.8999 67.3715 47.0439 67.2955C47.1879 67.2195 47.3019 67.0935 47.3859 66.9175C47.4739 66.7415 47.5179 66.5075 47.5179 66.2155V61.0795H49.3119V66.5635Z" fill="black"/>
<path d="M52.1578 65.0335C52.1578 65.4855 52.2498 65.8955 52.4338 66.2635C52.6218 66.6275 52.8798 66.9175 53.2078 67.1335C53.5398 67.3495 53.9238 67.4575 54.3598 67.4575C54.7958 67.4575 55.1778 67.3495 55.5058 67.1335C55.8378 66.9175 56.0958 66.6275 56.2798 66.2635C56.4678 65.8955 56.5618 65.4855 56.5618 65.0335C56.5618 64.5815 56.4678 64.1735 56.2798 63.8095C56.0958 63.4455 55.8378 63.1555 55.5058 62.9395C55.1778 62.7195 54.7958 62.6095 54.3598 62.6095C53.9238 62.6095 53.5398 62.7195 53.2078 62.9395C52.8798 63.1555 52.6218 63.4455 52.4338 63.8095C52.2498 64.1735 52.1578 64.5815 52.1578 65.0335ZM50.2918 65.0335C50.2918 64.4575 50.3938 63.9215 50.5978 63.4255C50.8018 62.9255 51.0878 62.4895 51.4558 62.1175C51.8238 61.7455 52.2558 61.4555 52.7518 61.2475C53.2478 61.0395 53.7838 60.9355 54.3598 60.9355C54.9438 60.9355 55.4818 61.0395 55.9738 61.2475C56.4698 61.4555 56.8998 61.7455 57.2638 62.1175C57.6318 62.4895 57.9158 62.9255 58.1158 63.4255C58.3198 63.9215 58.4218 64.4575 58.4218 65.0335C58.4218 65.6135 58.3238 66.1535 58.1278 66.6535C57.9318 67.1495 57.6518 67.5855 57.2878 67.9615C56.9238 68.3335 56.4938 68.6235 55.9978 68.8315C55.5018 69.0395 54.9558 69.1435 54.3598 69.1435C53.7518 69.1435 53.1978 69.0395 52.6978 68.8315C52.2018 68.6235 51.7738 68.3335 51.4138 67.9615C51.0538 67.5855 50.7758 67.1495 50.5798 66.6535C50.3878 66.1535 50.2918 65.6135 50.2918 65.0335Z" fill="black"/>
<path d="M59.516 61.0795H61.31V68.9995H59.516V61.0795Z" fill="black"/>
<path d="M64.3581 62.7235L64.4901 62.7475V68.9995H62.6961V61.0795H65.1441L68.3541 67.3195L68.2221 67.3435V61.0795H70.0161V68.9995H67.5561L64.3581 62.7235Z" fill="black"/>
<path d="M42.2954 57.179H44.8335L45.6334 54.2699C45.7626 53.7998 46.0011 53.3669 46.3296 53.0066C46.6581 52.6463 47.0672 52.3688 47.5235 52.1969L50.1554 51.205C50.6116 51.0329 51.1021 50.9714 51.5866 51.0253C52.0712 51.0791 52.5362 51.2469 52.9434 51.5149L55.9245 53.4769C56.3494 53.7566 56.6987 54.1369 56.9413 54.584C57.184 55.0311 57.3125 55.5312 57.3155 56.0399L57.3224 57.179H58.4824L58.4745 55.808C58.4717 55.3415 58.5746 54.8804 58.7755 54.4594C58.9764 54.0383 59.2701 53.6683 59.6344 53.377L62.4975 51.0869C62.8819 50.7795 63.3342 50.5684 63.8167 50.4712C64.2992 50.374 64.798 50.3935 65.2714 50.528L67.9604 51.292C68.4249 51.4239 68.8521 51.6628 69.2076 51.9896C69.5631 52.3165 69.8371 52.7221 70.0075 53.174L71.5075 57.1429L71.4834 57.178H72.8664C74.536 54.4601 75.4505 51.3461 75.5157 48.1571C75.5809 44.9681 74.7945 41.8194 73.2374 39.0355C71.6803 36.2517 69.409 33.9335 66.6576 32.3198C63.9061 30.7062 60.7741 29.8555 57.5844 29.8555C54.3947 29.8555 51.2627 30.7062 48.5113 32.3198C45.7599 33.9335 43.4885 36.2517 41.9315 39.0355C40.3744 41.8194 39.588 44.9681 39.6532 48.1571C39.7184 51.3461 40.6329 54.4601 42.3025 57.178L42.2954 57.179ZM66.4954 37.6039L70.7685 37.4039C72.9146 40.1301 74.1622 43.4549 74.3394 46.9199L70.9895 49.599C70.6051 49.9065 70.1527 50.1175 69.6702 50.2147C69.1877 50.312 68.6889 50.2925 68.2154 50.158L65.5495 49.3999C65.0849 49.268 64.6577 49.0291 64.3022 48.7023C63.9467 48.3754 63.6728 47.9698 63.5025 47.5179L62.2174 44.1079C62.0455 43.6521 61.9839 43.1622 62.0374 42.678C62.0909 42.1938 62.2581 41.7291 62.5254 41.3219L64.0564 38.991C64.325 38.5833 64.6863 38.2451 65.1107 38.004C65.5352 37.7629 66.0108 37.6257 66.4984 37.6039H66.4954ZM50.5954 36.2579L51.7494 32.0519C54.977 30.8515 58.4971 30.6794 61.8264 31.559L63.3614 35.631C63.5333 36.0868 63.5951 36.5767 63.5415 37.0609C63.488 37.5451 63.3207 38.0098 63.0534 38.417L61.5735 40.6699C61.3055 41.0777 60.9448 41.4164 60.5209 41.658C60.097 41.8996 59.6218 42.0373 59.1344 42.0599L55.4884 42.2289C55.0188 42.2506 54.5504 42.1649 54.1189 41.9783C53.6874 41.7916 53.3042 41.5091 52.9984 41.152L51.2284 39.085C50.8996 38.7015 50.6697 38.2433 50.559 37.7505C50.4483 37.2576 50.4602 36.7452 50.5935 36.2579H50.5954ZM43.4635 38.7289L47.6634 38.5339C48.133 38.5122 48.6015 38.5979 49.033 38.7845C49.4645 38.9712 49.8477 39.2539 50.1535 39.611L51.9644 41.726C52.2929 42.1096 52.5224 42.5678 52.6328 43.0607C52.7431 43.5535 52.731 44.0659 52.5974 44.553L51.6385 48.047C51.5094 48.5172 51.2708 48.95 50.9423 49.3103C50.6139 49.6706 50.2047 49.9481 49.7484 50.12L47.1164 51.1119C46.6602 51.2839 46.1698 51.3454 45.6853 51.2915C45.2007 51.2376 44.7358 51.0698 44.3285 50.8019L40.8224 48.495C40.681 45.0462 41.6022 41.6371 43.4615 38.7289H43.4635Z" fill="white"/>
<path d="M86.553 57.1791C88.3043 51.7648 88.522 45.9713 87.1819 40.4409C85.8418 34.9105 82.9962 29.8593 78.9607 25.8473C74.9252 21.8353 69.8574 19.0192 64.3192 17.7114C58.7811 16.4036 52.9889 16.6551 47.585 18.4381L51.0079 21.5941C55.7398 20.4515 60.6944 20.6289 65.3324 22.1068C69.9704 23.5847 74.1141 26.3066 77.3126 29.9762C80.511 33.6458 82.6415 38.1224 83.4722 42.9188C84.3029 47.7152 83.802 52.6476 82.0239 57.1791H86.553Z" fill="white"/>
<path d="M57.2415 14.8122C62.3708 14.8121 67.4291 16.0119 72.0118 18.3159C76.5946 20.6198 80.5748 23.9639 83.6343 28.0809C86.6939 32.1978 88.7478 36.9735 89.632 42.0261C90.5162 47.0786 90.2061 52.2679 88.7265 57.1792H92.7265C94.5615 50.4828 94.4635 43.4038 92.4435 36.7608C90.4236 30.1179 86.5644 24.1825 81.3123 19.6411C76.0602 15.0997 69.6298 12.1379 62.7648 11.0982C55.8999 10.0586 48.8808 10.9836 42.5195 13.7662L45.8595 16.8452C49.5028 15.4973 53.3569 14.8089 57.2415 14.8122Z" fill="white"/>
<path d="M66.7778 72.2852C60.6544 74.6212 53.8853 74.6212 47.7618 72.2852H30.1738C33.6173 76.0416 37.8042 79.041 42.4687 81.0929C47.1332 83.1448 52.1735 84.2045 57.2693 84.2045C62.3652 84.2045 67.4054 83.1448 72.0699 81.0929C76.7345 79.041 80.9214 76.0416 84.3648 72.2852H66.7778Z" fill="white"/>
<path d="M27.9314 57.1792H32.5144C30.5135 52.0681 30.1357 46.4647 31.4325 41.1312L28.1595 37.5312C25.9413 43.8792 25.8616 50.7787 27.9325 57.1763L27.9314 57.1792Z" fill="white"/>
<path d="M25.7572 57.1793C23.6427 50.1616 23.9338 42.6386 26.5842 35.8053L23.6432 32.5723C20.2262 40.3212 19.5801 49.0101 21.8132 57.1793H25.7572Z" fill="white"/>
<path d="M100.576 71.7168H92.2812V75.2607L100.576 71.7168Z" fill="#212D3D"/>
<path d="M115.163 76.2139L92.2812 76.314L101.632 72.0719V63.5039H115.11L108.138 70.0629L115.163 76.2139Z" fill="#7FFE1C"/>
<path d="M0 76.3204L22.882 76.4204L13.531 72.1785V63.6055H0.0499878L7.02197 70.1644L0 76.3204Z" fill="#7FFE1C"/>
<path d="M14.5879 71.8184H22.8829V75.3634L14.5879 71.8184Z" fill="#212D3D"/>
<path d="M47.7568 77.0408H48.6538V80.2148H50.0908V81.0008H47.7568V77.0408Z" fill="#212D3D"/>
<path d="M50.6742 77.0408H53.2032V77.8268H51.5682V78.6338H53.1882V79.3958H51.5682V80.2148H53.2032V81.0008H50.6742V77.0408Z" fill="#212D3D"/>
<path d="M55.0579 77.0408H55.9489L57.5119 81.0008H56.5549L56.2669 80.2058H54.7429L54.4519 81.0008H53.4919L55.0579 77.0408ZM55.0429 79.4198H55.9699L55.5109 78.1208H55.5019L55.0429 79.4198Z" fill="#212D3D"/>
<path d="M59.5308 78.7868H61.5498V79.0388C61.5498 79.3228 61.5018 79.5878 61.4058 79.8338C61.3118 80.0798 61.1768 80.2958 61.0008 80.4818C60.8248 80.6678 60.6148 80.8128 60.3708 80.9168C60.1268 81.0208 59.8568 81.0728 59.5608 81.0728C59.2548 81.0728 58.9768 81.0208 58.7268 80.9168C58.4788 80.8108 58.2648 80.6638 58.0848 80.4758C57.9048 80.2878 57.7668 80.0698 57.6708 79.8218C57.5748 79.5718 57.5268 79.3038 57.5268 79.0178C57.5268 78.7338 57.5748 78.4678 57.6708 78.2198C57.7668 77.9698 57.9048 77.7518 58.0848 77.5658C58.2648 77.3778 58.4788 77.2318 58.7268 77.1278C58.9768 77.0218 59.2548 76.9688 59.5608 76.9688C59.8108 76.9688 60.0308 76.9958 60.2208 77.0498C60.4128 77.1038 60.5778 77.1758 60.7158 77.2658C60.8538 77.3558 60.9708 77.4548 61.0668 77.5628C61.1628 77.6688 61.2428 77.7728 61.3068 77.8748L60.4548 78.2768C60.3728 78.1508 60.2608 78.0408 60.1188 77.9468C59.9788 77.8528 59.7928 77.8058 59.5608 77.8058C59.3988 77.8058 59.2498 77.8378 59.1138 77.9018C58.9798 77.9658 58.8638 78.0538 58.7658 78.1658C58.6678 78.2758 58.5918 78.4048 58.5378 78.5528C58.4858 78.6988 58.4598 78.8538 58.4598 79.0178C58.4598 79.1838 58.4858 79.3398 58.5378 79.4858C58.5918 79.6318 58.6678 79.7608 58.7658 79.8728C58.8638 79.9848 58.9798 80.0728 59.1138 80.1368C59.2498 80.1988 59.3988 80.2298 59.5608 80.2298C59.7028 80.2298 59.8318 80.2118 59.9478 80.1758C60.0638 80.1398 60.1638 80.0878 60.2478 80.0198C60.3338 79.9518 60.4008 79.8718 60.4488 79.7798C60.4988 79.6858 60.5288 79.5828 60.5388 79.4708H59.5308V78.7868Z" fill="#212D3D"/>
<path d="M64.3539 77.0408H65.2509V79.4738C65.2509 79.7998 65.1869 80.0828 65.0589 80.3228C64.9309 80.5608 64.7479 80.7458 64.5099 80.8778C64.2719 81.0078 63.9879 81.0728 63.6579 81.0728C63.3259 81.0728 63.0399 81.0078 62.7999 80.8778C62.5599 80.7458 62.3759 80.5608 62.2479 80.3228C62.1219 80.0828 62.0589 79.7998 62.0589 79.4738V77.0408H62.9529V79.4258C62.9529 79.6058 62.9809 79.7578 63.0369 79.8818C63.0949 80.0058 63.1769 80.0998 63.2829 80.1638C63.3889 80.2258 63.5139 80.2568 63.6579 80.2568C63.7999 80.2568 63.9229 80.2258 64.0269 80.1638C64.1309 80.0998 64.2109 80.0058 64.2669 79.8818C64.3249 79.7578 64.3539 79.6058 64.3539 79.4258V77.0408Z" fill="#212D3D"/>
<path d="M65.8852 77.0408H68.4142V77.8268H66.7792V78.6338H68.3992V79.3958H66.7792V80.2148H68.4142V81.0008H65.8852V77.0408Z" fill="#212D3D"/>
</svg>
