<?xml version="1.0" encoding="utf-8"?>
<!-- Generator: Adobe Illustrator 26.0.3, SVG Export Plug-In . SVG Version: 6.00 Build 0)  -->
<svg version="1.1" id="Layer_1" xmlns="http://www.w3.org/2000/svg" xmlns:xlink="http://www.w3.org/1999/xlink" x="0px" y="0px"
	 viewBox="0 0 100 100" style="enable-background:new 0 0 100 100;" xml:space="preserve">
<style type="text/css">
	.st0{fill:#26A6FF;}
</style>
<g>
	<path class="st0" d="M63.9,9c-1.1,1.1-2.1,2.1-3.2,3.1c-2,1.8-2.8,4-2.9,6.6c0,2.7,0,5.4,0,8.1c0,0.7-0.3,1.2-0.8,1.7
		c-1.2,1.2-2.4,1.2-4,0.7c-11.7-3.2-24.6,4.3-27.3,17.3C23,59.5,32,72,45.2,73.4c12.6,1.4,23.5-7.3,25-19.9c0.4-3.1,0.2-6.3-0.9-9.3
		c-0.1-0.3,0.1-0.6,0.2-0.9c0-0.1,0.1-0.1,0.1-0.1c1-1.4,2.3-1.8,4-1.8c2.8,0.1,5.6,0,8.4-0.2c1.9-0.1,3.5-1.1,4.9-2.5
		c1.1-1.1,2.2-2.2,3.3-3.3c6.8,17,2.1,39.7-16.7,52.8c-17.6,12.3-42.4,10-57.4-5.5C0.4,66.5-1.4,42.3,12,24.3
		C25.3,6.3,47.6,2.5,63.9,9z"/>
	<path class="st0" d="M83.5,15.7c3.2,0,6.3,0,9.4,0c1.8,0,2.7,0.7,3.3,2.4c0.4,1.2,0.1,2.2-0.8,3c-4.3,4.4-8.6,8.7-13,13
		c-0.6,0.5-1.5,0.9-2.3,0.9c-3.5,0.1-7,0.1-10.5,0c-0.7,0-1.1,0.2-1.6,0.7C62.2,41.4,56.4,47.2,50.6,53c-1.3,1.3-2.7,1.6-4.1,0.8
		c-1.8-1-2.2-3.2-0.9-4.7c0.3-0.3,0.6-0.6,0.9-0.9c5.7-5.7,11.3-11.3,17-17c0.5-0.5,0.7-1,0.7-1.7c0-3.5,0-6.9,0-10.4
		c0-1,0.3-1.9,1.1-2.6c4.2-4.2,8.5-8.5,12.7-12.7c1.1-1.1,2.3-1.3,3.8-0.6c1.3,0.6,1.7,1.7,1.8,3C83.5,9.3,83.5,12.4,83.5,15.7z"/>
	<path class="st0" d="M50.3,35.4c-3.1,3.1-6.2,6.1-9.2,9.2c-1.9,1.9-2.9,4.2-2.6,6.9c0.3,4,2.3,7.1,6.1,8.6c3.6,1.4,7,0.9,9.9-1.8
		c2.9-2.8,5.7-5.7,8.6-8.6c0.2-0.2,0.5-0.4,0.7-0.7c1.7,4.5-1.7,12.2-6.8,15.6c-6.3,4.2-14.9,3.4-20.3-1.9
		c-5.3-5.2-6.3-13.8-2.3-20.1C37.8,37.1,45.5,33.6,50.3,35.4z"/>
</g>
</svg>
